# xmcd
#
# Track frame offsets:
#	182
#	13370
#	26167
#	39172
#	52380
#	65337
#	78720
#	91327
#	118482
#	132007
#	142425
#
# Disc length: 2058 seconds
#
# Revision: 0
# Processed by: cddbd v1.5.2PL0 Copyright (c) Steve Scherf et al.
# Submitted via: dBpowerAMP V4.0
#
DISCID=a908080b
DTITLE=B.B. King - Blues Story
DYEAR=1900
DGENRE=blues
TTITLE0=Rock Me Baby
TTITLE1=Every Day I Hvae The Blues
TTITLE2=Woke Up This Mornin'
TTITLE3=You Upset Me Baby
TTITLE4=When My Heart Beats Like A Hammer
TTITLE5=Sweet little Angel
TTITLE6=Please Love ME
TTITLE7=Sweet Sixteen
TTITLE8=3 O'Clock Blues
TTITLE9=Bad Case Of Love
TTITLE10=Ten Long Years
EXTD=
EXTT0=
EXTT1=
EXTT2=
EXTT3=
EXTT4=
EXTT5=
EXTT6=
EXTT7=
EXTT8=
EXTT9=
EXTT10=
PLAYORDER=
